#N canvas 2151 212 683 409 10;
#X obj 283 22 key;
#N canvas 4519 223 869 701 location 0;
#X obj 127 21 inlet;
#X floatatom 128 42 5 0 0 0 - - -;
#X obj 128 95 bng 15 250 50 0 empty empty empty 17 7 0 10 -262144 -1
-1;
#X obj 156 92 bng 15 250 50 0 empty empty empty 17 7 0 10 -262144 -1
-1;
#X obj 187 94 bng 15 250 50 0 empty empty empty 17 7 0 10 -262144 -1
-1;
#X obj 216 88 bng 15 250 50 0 empty empty empty 17 7 0 10 -262144 -1
-1;
#X msg 128 121 -1;
#X obj 148 176 +;
#X msg 182 121 1;
#X floatatom 129 218 5 0 0 0 - - -;
#X text 97 176 y axis;
#X msg 214 121 -1;
#X obj 234 176 +;
#X msg 268 121 1;
#X floatatom 427 181 5 0 0 0 - - -;
#X text 183 176 x axis;
#X obj 125 64 select 119 97 115 100;
#X obj 446 443 select 1;
#X floatatom 448 389 5 0 0 0 - - -;
#X msg 515 367 7;
#X obj 336 441 select 1;
#X floatatom 338 387 5 0 0 0 - - -;
#X msg 396 361 0;
#X obj 412 488 bng 15 250 50 0 empty empty empty 17 7 0 10 -262144
-1 -1;
#X obj 400 542 float;
#X obj 404 599 send X_axis;
#X obj 106 611 send Y_axis;
#X obj 177 425 select 1;
#X floatatom 179 371 5 0 0 0 - - -;
#X msg 246 349 7;
#X obj 67 423 select 1;
#X floatatom 69 369 5 0 0 0 - - -;
#X msg 127 343 0;
#X obj 143 470 bng 15 250 50 0 empty empty empty 17 7 0 10 -262144
-1 -1;
#X obj 131 524 float;
#X obj 67 325 <= -1;
#X obj 177 326 >= 8;
#X obj 445 345 >= 8;
#X obj 336 343 <= -1;
#X obj 641 319 readsf~;
#X msg 580 256 start;
#X obj 614 115 bng 15 250 50 0 empty empty empty 17 7 0 10 -262144
-1 -1;
#X msg 619 195 open WallHit.wav;
#X obj 652 439 dac~;
#X obj 652 369 *~;
#X msg 791 235 2;
#X connect 0 0 1 0;
#X connect 1 0 16 0;
#X connect 2 0 6 0;
#X connect 3 0 11 0;
#X connect 4 0 8 0;
#X connect 5 0 13 0;
#X connect 6 0 7 0;
#X connect 7 0 9 0;
#X connect 8 0 7 0;
#X connect 9 0 7 1;
#X connect 9 0 34 1;
#X connect 9 0 35 0;
#X connect 9 0 36 0;
#X connect 11 0 12 0;
#X connect 12 0 14 0;
#X connect 13 0 12 0;
#X connect 14 0 12 1;
#X connect 14 0 24 1;
#X connect 14 0 37 0;
#X connect 14 0 38 0;
#X connect 16 0 2 0;
#X connect 16 1 3 0;
#X connect 16 2 4 0;
#X connect 16 3 5 0;
#X connect 17 0 19 0;
#X connect 17 0 41 0;
#X connect 17 1 23 0;
#X connect 18 0 17 0;
#X connect 19 0 14 0;
#X connect 20 0 22 0;
#X connect 20 0 41 0;
#X connect 20 1 23 0;
#X connect 21 0 20 0;
#X connect 22 0 14 0;
#X connect 23 0 24 0;
#X connect 24 0 25 0;
#X connect 27 0 29 0;
#X connect 27 0 41 0;
#X connect 27 1 33 0;
#X connect 28 0 27 0;
#X connect 29 0 9 0;
#X connect 30 0 32 0;
#X connect 30 0 41 0;
#X connect 30 1 33 0;
#X connect 31 0 30 0;
#X connect 32 0 9 0;
#X connect 33 0 34 0;
#X connect 34 0 26 0;
#X connect 35 0 31 0;
#X connect 36 0 28 0;
#X connect 37 0 18 0;
#X connect 38 0 21 0;
#X connect 39 0 44 0;
#X connect 40 0 39 0;
#X connect 41 0 42 0;
#X connect 41 0 45 0;
#X connect 42 0 39 0;
#X connect 42 0 40 0;
#X connect 44 0 43 0;
#X connect 44 0 43 1;
#X connect 45 0 44 1;
#X restore 283 55 pd location;
#N canvas 568 281 804 767 footsteps 0;
#X obj 70 342 send foot;
#X obj 76 262 select 1;
#X msg 74 298 1;
#X floatatom 39 -4 5 0 0 0 - - -;
#X floatatom 101 -3 5 0 0 0 - - -;
#X obj 38 69 &&;
#X floatatom 27 102 5 0 0 0 - - -;
#X obj 113 70 &&;
#X floatatom 102 103 5 0 0 0 - - -;
#X obj 74 152 &&;
#X floatatom 72 178 5 0 0 0 - - -;
#X obj 76 -43 receive X_axis;
#X obj 170 -42 receive Y_axis;
#X obj 87 215 bng 15 250 50 0 empty empty empty 17 7 0 10 -262144 -1
-1;
#X obj 20 27 >= 0;
#X obj 75 127 bng 15 250 50 0 empty empty empty 17 7 0 10 -262144 -1
-1;
#X obj 98 33 >= 0;
#X obj 58 33 <= 7;
#X obj 53 769 send foot;
#X obj 59 689 select 1;
#X msg 57 725 1;
#X floatatom 31 414 5 0 0 0 - - -;
#X floatatom 84 424 5 0 0 0 - - -;
#X obj 21 496 &&;
#X floatatom 10 529 5 0 0 0 - - -;
#X obj 96 497 &&;
#X floatatom 85 530 5 0 0 0 - - -;
#X obj 57 579 &&;
#X floatatom 55 605 5 0 0 0 - - -;
#X obj 59 384 receive X_axis;
#X obj 153 385 receive Y_axis;
#X obj 70 642 bng 15 250 50 0 empty empty empty 17 7 0 10 -262144 -1
-1;
#X obj 58 554 bng 15 250 50 0 empty empty empty 17 7 0 10 -262144 -1
-1;
#X obj 41 460 <= 7;
#X obj 3 454 >= 3;
#X obj 81 460 >= 2;
#X obj 117 462 <= 2;
#X obj 19 1204 send foot;
#X obj 25 1124 select 1;
#X msg 23 1160 1;
#X floatatom -3 849 5 0 0 0 - - -;
#X floatatom 50 859 5 0 0 0 - - -;
#X obj -13 931 &&;
#X floatatom -24 964 5 0 0 0 - - -;
#X obj 62 932 &&;
#X floatatom 51 965 5 0 0 0 - - -;
#X obj 23 1014 &&;
#X floatatom 21 1040 5 0 0 0 - - -;
#X obj 25 819 receive X_axis;
#X obj 119 820 receive Y_axis;
#X obj 36 1077 bng 15 250 50 0 empty empty empty 17 7 0 10 -262144
-1 -1;
#X obj 24 989 bng 15 250 50 0 empty empty empty 17 7 0 10 -262144 -1
-1;
#X obj -31 889 >= 3;
#X obj 7 895 <= 4;
#X obj 47 895 >= 3;
#X obj 83 897 <= 7;
#X obj 8 1631 send foot;
#X obj 14 1551 select 1;
#X msg 12 1587 1;
#X floatatom -14 1276 5 0 0 0 - - -;
#X floatatom 39 1286 5 0 0 0 - - -;
#X obj -24 1358 &&;
#X floatatom -35 1391 5 0 0 0 - - -;
#X obj 51 1359 &&;
#X floatatom 40 1392 5 0 0 0 - - -;
#X obj 12 1441 &&;
#X floatatom 10 1467 5 0 0 0 - - -;
#X obj 14 1246 receive X_axis;
#X obj 108 1247 receive Y_axis;
#X obj 25 1504 bng 15 250 50 0 empty empty empty 17 7 0 10 -262144
-1 -1;
#X obj 13 1416 bng 15 250 50 0 empty empty empty 17 7 0 10 -262144
-1 -1;
#X obj 72 1324 <= 7;
#X obj -4 1322 <= 7;
#X obj 37 1321 >= 6;
#X obj -42 1316 >= 5;
#X obj 136 34 <= 1;
#X obj 369 777 send foot;
#X obj 375 697 select 1;
#X floatatom 338 431 5 0 0 0 - - -;
#X floatatom 400 432 5 0 0 0 - - -;
#X obj 337 504 &&;
#X floatatom 326 537 5 0 0 0 - - -;
#X obj 412 505 &&;
#X floatatom 401 538 5 0 0 0 - - -;
#X obj 373 587 &&;
#X floatatom 371 613 5 0 0 0 - - -;
#X obj 375 392 receive X_axis;
#X obj 469 393 receive Y_axis;
#X obj 386 650 bng 15 250 50 0 empty empty empty 17 7 0 10 -262144
-1 -1;
#X obj 319 462 >= 0;
#X obj 374 562 bng 15 250 50 0 empty empty empty 17 7 0 10 -262144
-1 -1;
#X obj 357 466 <= 2;
#X obj 397 467 >= 2;
#X obj 435 469 <= 4;
#X msg 371 735 2;
#X obj 322 1210 send foot;
#X obj 328 1130 select 1;
#X floatatom 291 864 5 0 0 0 - - -;
#X floatatom 354 865 5 0 0 0 - - -;
#X obj 290 937 &&;
#X floatatom 279 970 5 0 0 0 - - -;
#X obj 365 938 &&;
#X floatatom 354 971 5 0 0 0 - - -;
#X obj 326 1020 &&;
#X floatatom 324 1046 5 0 0 0 - - -;
#X obj 328 825 receive X_axis;
#X obj 422 826 receive Y_axis;
#X obj 339 1083 bng 15 250 50 0 empty empty empty 17 7 0 10 -262144
-1 -1;
#X obj 272 895 >= 0;
#X obj 327 995 bng 15 250 50 0 empty empty empty 17 7 0 10 -262144
-1 -1;
#X obj 310 899 <= 2;
#X obj 350 900 >= 5;
#X obj 388 902 <= 7;
#X msg 324 1168 3;
#X obj 286 1638 send foot;
#X obj 292 1558 select 1;
#X floatatom 255 1292 5 0 0 0 - - -;
#X floatatom 318 1293 5 0 0 0 - - -;
#X obj 254 1365 &&;
#X floatatom 243 1398 5 0 0 0 - - -;
#X obj 329 1366 &&;
#X floatatom 318 1399 5 0 0 0 - - -;
#X obj 290 1448 &&;
#X floatatom 288 1474 5 0 0 0 - - -;
#X obj 292 1253 receive X_axis;
#X obj 386 1254 receive Y_axis;
#X obj 303 1511 bng 15 250 50 0 empty empty empty 17 7 0 10 -262144
-1 -1;
#X obj 291 1423 bng 15 250 50 0 empty empty empty 17 7 0 10 -262144
-1 -1;
#X msg 288 1596 3;
#X obj 236 1323 >= 5;
#X obj 274 1327 <= 7;
#X obj 314 1328 >= 3;
#X obj 354 1331 <= 5;
#X text 187 -6 Wood Floor;
#X text 186 421 Wood Floor;
#X text 163 860 Wood Floor;
#X text 127 1280 Wood Floor;
#X text 493 437 Rug;
#X text 475 869 Kitchen;
#X text 427 1301 Bathroom;
#X obj 638 706 select 1;
#X floatatom 601 440 5 0 0 0 - - -;
#X floatatom 663 441 5 0 0 0 - - -;
#X floatatom 589 546 5 0 0 0 - - -;
#X floatatom 664 547 5 0 0 0 - - -;
#X obj 636 596 &&;
#X floatatom 634 622 5 0 0 0 - - -;
#X obj 638 401 receive X_axis;
#X obj 732 402 receive Y_axis;
#X obj 649 659 bng 15 250 50 0 empty empty empty 17 7 0 10 -262144
-1 -1;
#X obj 637 571 bng 15 250 50 0 empty empty empty 17 7 0 10 -262144
-1 -1;
#X obj 590 481 == 6;
#X obj 633 786 send foot;
#X msg 638 742 4;
#X obj 676 482 == 5;
#X obj 23 1775 bng 15 250 50 0 empty empty empty 17 7 0 10 -262144
-1 -1;
#X obj 35 1696 receive foot;
#X obj 55 1775 bng 15 250 50 0 empty empty empty 17 7 0 10 -262144
-1 -1;
#X obj 83 1776 bng 15 250 50 0 empty empty empty 17 7 0 10 -262144
-1 -1;
#X obj 29 1744 select 1 2 3 4;
#X obj 110 1775 bng 15 250 50 0 empty empty empty 17 7 0 10 -262144
-1 -1;
#N canvas 756 84 704 767 WoodFloor 0;
#X obj 193 41 inlet;
#X obj 246 618 readsf~;
#X obj 133 257 bng 15 250 50 0 empty empty empty 17 7 0 10 -262144
-1 -1;
#X obj 237 780 outlet~;
#X obj 251 699 *~;
#X msg 64 327 open HardFootstep2.wav;
#X msg 290 546 start;
#X floatatom 153 158 5 0 0 0 - - -;
#X obj 153 108 random 2;
#X obj 157 215 select 0 1;
#X obj 278 289 bng 15 250 50 0 empty empty empty 17 7 0 10 -262144
-1 -1;
#X msg 209 359 open HardFootstep3.wav;
#X msg 435 422 5;
#X connect 0 0 12 0;
#X connect 0 0 8 0;
#X connect 1 0 4 0;
#X connect 2 0 5 0;
#X connect 4 0 3 0;
#X connect 5 0 1 0;
#X connect 5 0 6 0;
#X connect 6 0 1 0;
#X connect 7 0 9 0;
#X connect 8 0 7 0;
#X connect 9 0 2 0;
#X connect 9 1 10 0;
#X connect 10 0 11 0;
#X connect 11 0 1 0;
#X connect 11 0 6 0;
#X connect 12 0 4 1;
#X restore 22 1829 pd WoodFloor;
#X obj 16 2053 dac~;
#N canvas 863 34 704 767 Rug 0;
#X obj 161 60 inlet;
#X obj 237 780 outlet~;
#X obj 251 699 *~;
#X obj 256 628 readsf~;
#X msg 300 556 start;
#X msg 35 439 open CarpetFootstep10.wav;
#X floatatom 154 195 5 0 0 0 - - -;
#X obj 105 350 bng 15 250 50 0 empty empty empty 17 7 0 10 -262144
-1 -1;
#X obj 235 412 bng 15 250 50 0 empty empty empty 17 7 0 10 -262144
-1 -1;
#X obj 311 331 bng 15 250 50 0 empty empty empty 17 7 0 10 -262144
-1 -1;
#X obj 154 145 random 4;
#X obj 158 246 select 0 1 2 3;
#X msg 106 374 open CarpetFootstep11.wav;
#X msg 235 436 open CarpetFootstep12.wav;
#X msg 311 355 open CarpetFootstep13.wav;
#X msg 445 432 1.5;
#X connect 0 0 10 0;
#X connect 0 0 15 0;
#X connect 2 0 1 0;
#X connect 3 0 2 0;
#X connect 4 0 3 0;
#X connect 5 0 3 0;
#X connect 5 0 4 0;
#X connect 6 0 11 0;
#X connect 7 0 12 0;
#X connect 8 0 13 0;
#X connect 9 0 14 0;
#X connect 10 0 6 0;
#X connect 11 1 7 0;
#X connect 11 2 8 0;
#X connect 11 3 9 0;
#X connect 12 0 3 0;
#X connect 12 0 4 0;
#X connect 13 0 3 0;
#X connect 13 0 4 0;
#X connect 14 0 3 0;
#X connect 14 0 4 0;
#X connect 15 0 2 1;
#X restore 115 1830 pd Rug;
#N canvas 1000 152 704 768 Tile 0;
#X obj 216 46 inlet;
#X obj 246 618 readsf~;
#X obj 27 370 bng 15 250 50 0 empty empty empty 17 7 0 10 -262144 -1
-1;
#X obj 237 780 outlet~;
#X obj 251 699 *~;
#X msg 290 546 start;
#X floatatom 164 205 5 0 0 0 - - -;
#X msg 27 394 open TileFootstep1.wav;
#X obj 98 324 bng 15 250 50 0 empty empty empty 17 7 0 10 -262144 -1
-1;
#X obj 218 384 bng 15 250 50 0 empty empty empty 17 7 0 10 -262144
-1 -1;
#X obj 267 319 bng 15 250 50 0 empty empty empty 17 7 0 10 -262144
-1 -1;
#X obj 165 155 random 4;
#X obj 168 256 select 0 1 2 3;
#X msg 99 348 open TileFootstep2.wav;
#X msg 218 408 open TileFootstep3.wav;
#X msg 267 343 open TileFootstep4.wav;
#X msg 415 654 1.5;
#X connect 0 0 16 0;
#X connect 0 0 11 0;
#X connect 1 0 4 0;
#X connect 2 0 7 0;
#X connect 4 0 3 0;
#X connect 5 0 1 0;
#X connect 6 0 12 0;
#X connect 7 0 1 0;
#X connect 7 0 5 0;
#X connect 8 0 13 0;
#X connect 9 0 14 0;
#X connect 10 0 15 0;
#X connect 11 0 6 0;
#X connect 12 0 2 0;
#X connect 12 1 8 0;
#X connect 12 2 9 0;
#X connect 12 3 10 0;
#X connect 13 0 1 0;
#X connect 13 0 5 0;
#X connect 14 0 1 0;
#X connect 14 0 5 0;
#X connect 15 0 1 0;
#X connect 15 0 5 0;
#X connect 16 0 4 1;
#X restore 175 1830 pd Tile;
#N canvas 2316 225 704 767 looseTile 0;
#X obj 166 219 inlet;
#X obj 246 618 readsf~;
#X obj 220 370 bng 15 250 50 0 empty empty empty 17 7 0 10 -262144
-1 -1;
#X obj 237 780 outlet~;
#X obj 251 699 *~;
#X msg 290 546 start;
#X msg 435 422 30;
#X msg 220 394 open HardFootstep3.wav;
#X connect 0 0 6 0;
#X connect 0 0 2 0;
#X connect 1 0 4 0;
#X connect 2 0 7 0;
#X connect 4 0 3 0;
#X connect 5 0 1 0;
#X connect 6 0 4 1;
#X connect 7 0 1 0;
#X connect 7 0 5 0;
#X restore 232 1825 pd looseTile;
#X connect 1 0 2 0;
#X connect 2 0 0 0;
#X connect 3 0 14 0;
#X connect 3 0 17 0;
#X connect 4 0 16 0;
#X connect 4 0 75 0;
#X connect 5 0 6 0;
#X connect 6 0 9 0;
#X connect 7 0 8 0;
#X connect 8 0 9 1;
#X connect 8 0 15 0;
#X connect 9 0 10 0;
#X connect 10 0 13 0;
#X connect 10 0 1 0;
#X connect 11 0 3 0;
#X connect 12 0 4 0;
#X connect 14 0 5 1;
#X connect 15 0 9 0;
#X connect 16 0 7 1;
#X connect 17 0 5 0;
#X connect 19 0 20 0;
#X connect 20 0 18 0;
#X connect 21 0 34 0;
#X connect 21 0 33 0;
#X connect 22 0 35 0;
#X connect 22 0 36 0;
#X connect 23 0 24 0;
#X connect 24 0 27 0;
#X connect 25 0 26 0;
#X connect 26 0 27 1;
#X connect 26 0 32 0;
#X connect 27 0 28 0;
#X connect 28 0 31 0;
#X connect 28 0 19 0;
#X connect 29 0 21 0;
#X connect 30 0 22 0;
#X connect 32 0 27 0;
#X connect 33 0 23 0;
#X connect 34 0 23 1;
#X connect 35 0 25 1;
#X connect 36 0 25 0;
#X connect 38 0 39 0;
#X connect 39 0 37 0;
#X connect 40 0 52 0;
#X connect 40 0 53 0;
#X connect 41 0 54 0;
#X connect 41 0 55 0;
#X connect 42 0 43 0;
#X connect 43 0 46 0;
#X connect 44 0 45 0;
#X connect 45 0 46 1;
#X connect 45 0 51 0;
#X connect 46 0 47 0;
#X connect 47 0 50 0;
#X connect 47 0 38 0;
#X connect 48 0 40 0;
#X connect 49 0 41 0;
#X connect 51 0 46 0;
#X connect 52 0 42 1;
#X connect 53 0 42 0;
#X connect 54 0 44 1;
#X connect 55 0 44 0;
#X connect 57 0 58 0;
#X connect 58 0 56 0;
#X connect 59 0 74 0;
#X connect 59 0 72 0;
#X connect 60 0 73 0;
#X connect 60 0 71 0;
#X connect 61 0 62 0;
#X connect 62 0 65 0;
#X connect 63 0 64 0;
#X connect 64 0 65 1;
#X connect 64 0 70 0;
#X connect 65 0 66 0;
#X connect 66 0 69 0;
#X connect 66 0 57 0;
#X connect 67 0 59 0;
#X connect 68 0 60 0;
#X connect 70 0 65 0;
#X connect 71 0 63 0;
#X connect 72 0 61 0;
#X connect 73 0 63 1;
#X connect 74 0 61 1;
#X connect 75 0 7 0;
#X connect 77 0 94 0;
#X connect 78 0 89 0;
#X connect 78 0 91 0;
#X connect 79 0 92 0;
#X connect 79 0 93 0;
#X connect 80 0 81 0;
#X connect 81 0 84 0;
#X connect 82 0 83 0;
#X connect 83 0 84 1;
#X connect 83 0 90 0;
#X connect 84 0 85 0;
#X connect 85 0 88 0;
#X connect 85 0 77 0;
#X connect 86 0 78 0;
#X connect 87 0 79 0;
#X connect 89 0 80 1;
#X connect 90 0 84 0;
#X connect 91 0 80 0;
#X connect 92 0 82 1;
#X connect 93 0 82 0;
#X connect 94 0 76 0;
#X connect 96 0 113 0;
#X connect 97 0 108 0;
#X connect 97 0 110 0;
#X connect 98 0 111 0;
#X connect 98 0 112 0;
#X connect 99 0 100 0;
#X connect 100 0 103 0;
#X connect 101 0 102 0;
#X connect 102 0 103 1;
#X connect 102 0 109 0;
#X connect 103 0 104 0;
#X connect 104 0 107 0;
#X connect 104 0 96 0;
#X connect 105 0 97 0;
#X connect 106 0 98 0;
#X connect 108 0 99 1;
#X connect 109 0 103 0;
#X connect 110 0 99 0;
#X connect 111 0 101 1;
#X connect 112 0 101 0;
#X connect 113 0 95 0;
#X connect 115 0 128 0;
#X connect 116 0 129 0;
#X connect 116 0 130 0;
#X connect 117 0 131 0;
#X connect 117 0 132 0;
#X connect 118 0 119 0;
#X connect 119 0 122 0;
#X connect 120 0 121 0;
#X connect 121 0 122 1;
#X connect 121 0 127 0;
#X connect 122 0 123 0;
#X connect 123 0 126 0;
#X connect 123 0 115 0;
#X connect 124 0 116 0;
#X connect 125 0 117 0;
#X connect 127 0 122 0;
#X connect 128 0 114 0;
#X connect 129 0 118 1;
#X connect 130 0 118 0;
#X connect 131 0 120 1;
#X connect 132 0 120 0;
#X connect 140 0 153 0;
#X connect 141 0 151 0;
#X connect 142 0 154 0;
#X connect 143 0 145 0;
#X connect 144 0 145 1;
#X connect 144 0 150 0;
#X connect 145 0 146 0;
#X connect 146 0 149 0;
#X connect 146 0 140 0;
#X connect 147 0 141 0;
#X connect 148 0 142 0;
#X connect 150 0 145 0;
#X connect 151 0 143 0;
#X connect 153 0 152 0;
#X connect 154 0 144 0;
#X connect 155 0 161 0;
#X connect 156 0 159 0;
#X connect 157 0 163 0;
#X connect 158 0 164 0;
#X connect 159 0 155 0;
#X connect 159 1 157 0;
#X connect 159 2 158 0;
#X connect 159 3 160 0;
#X connect 160 0 165 0;
#X connect 161 0 162 0;
#X connect 161 0 162 1;
#X connect 163 0 162 0;
#X connect 163 0 162 1;
#X connect 164 0 162 0;
#X connect 164 0 162 1;
#X connect 165 0 162 0;
#X connect 165 0 162 1;
#X restore 233 97 pd footsteps;
#N canvas 2396 237 934 628 interactive 0;
#X obj 614 -716 receive clue;
#X obj 519 -382 bng 15 250 50 0 empty empty empty 17 7 0 10 -262144
-1 -1;
#X obj 539 -382 bng 15 250 50 0 empty empty empty 17 7 0 10 -262144
-1 -1;
#X obj 562 -383 bng 15 250 50 0 empty empty empty 17 7 0 10 -262144
-1 -1;
#X obj 581 -383 bng 15 250 50 0 empty empty empty 17 7 0 10 -262144
-1 -1;
#X obj 524 -634 bng 15 250 50 0 empty empty empty 17 7 0 10 -262144
-1 -1;
#X floatatom 517 -693 5 0 0 0 - - -;
#X obj 601 -383 bng 15 250 50 0 empty empty empty 17 7 0 10 -262144
-1 -1;
#X obj 620 -382 bng 15 250 50 0 empty empty empty 17 7 0 10 -262144
-1 -1;
#X obj 642 -384 bng 15 250 50 0 empty empty empty 17 7 0 10 -262144
-1 -1;
#X floatatom 614 -677 5 0 0 0 - - -;
#X obj 516 -663 select 32;
#X obj 518 -720 key;
#X obj 539 -600 float;
#X floatatom 530 -538 5 0 0 0 - - -;
#X obj 104 -409 select 1;
#X msg 102 -373 1;
#X floatatom 67 -675 5 0 0 0 - - -;
#X floatatom 129 -674 5 0 0 0 - - -;
#X floatatom 55 -569 5 0 0 0 - - -;
#X floatatom 130 -568 5 0 0 0 - - -;
#X obj 102 -519 &&;
#X floatatom 100 -493 5 0 0 0 - - -;
#X obj 104 -714 receive X_axis;
#X obj 198 -713 receive Y_axis;
#X obj 115 -456 bng 15 250 50 0 empty empty empty 17 7 0 10 -262144
-1 -1;
#X obj 103 -544 bng 15 250 50 0 empty empty empty 17 7 0 10 -262144
-1 -1;
#X obj 98 -329 send clue;
#X obj 38 -631 >= 3;
#X obj 82 -631 <= 4;
#X obj 60 -599 &&;
#X obj 142 -633 == 1;
#X obj 80 33 select 1;
#X floatatom 43 -233 5 0 0 0 - - -;
#X floatatom 105 -232 5 0 0 0 - - -;
#X floatatom 31 -127 5 0 0 0 - - -;
#X floatatom 106 -126 5 0 0 0 - - -;
#X obj 78 -77 &&;
#X floatatom 76 -51 5 0 0 0 - - -;
#X obj 80 -272 receive X_axis;
#X obj 174 -271 receive Y_axis;
#X obj 91 -14 bng 15 250 50 0 empty empty empty 17 7 0 10 -262144 -1
-1;
#X obj 79 -102 bng 15 250 50 0 empty empty empty 17 7 0 10 -262144
-1 -1;
#X obj 74 113 send clue;
#X obj 34 -192 == 0;
#X obj 118 -191 == 5;
#X msg 78 69 2;
#X obj 112 469 select 1;
#X floatatom 75 203 5 0 0 0 - - -;
#X floatatom 137 204 5 0 0 0 - - -;
#X floatatom 63 309 5 0 0 0 - - -;
#X floatatom 138 310 5 0 0 0 - - -;
#X obj 110 359 &&;
#X floatatom 108 385 5 0 0 0 - - -;
#X obj 112 164 receive X_axis;
#X obj 206 165 receive Y_axis;
#X obj 123 422 bng 15 250 50 0 empty empty empty 17 7 0 10 -262144
-1 -1;
#X obj 111 334 bng 15 250 50 0 empty empty empty 17 7 0 10 -262144
-1 -1;
#X obj 106 549 send clue;
#X msg 110 505 2;
#X obj 150 245 == 4;
#X obj 64 244 == 6;
#X obj 67 902 select 1;
#X floatatom 30 636 5 0 0 0 - - -;
#X floatatom 92 637 5 0 0 0 - - -;
#X floatatom 18 742 5 0 0 0 - - -;
#X floatatom 93 743 5 0 0 0 - - -;
#X obj 65 792 &&;
#X floatatom 63 818 5 0 0 0 - - -;
#X obj 67 597 receive X_axis;
#X obj 161 598 receive Y_axis;
#X obj 78 855 bng 15 250 50 0 empty empty empty 17 7 0 10 -262144 -1
-1;
#X obj 66 767 bng 15 250 50 0 empty empty empty 17 7 0 10 -262144 -1
-1;
#X obj 61 982 send clue;
#X obj 19 677 == 0;
#X obj 105 678 == 6;
#X msg 65 938 3;
#X obj 34 1257 select 1;
#X floatatom 18 1065 5 0 0 0 - - -;
#X floatatom 80 1066 5 0 0 0 - - -;
#X floatatom 9 1145 5 0 0 0 - - -;
#X floatatom 84 1141 5 0 0 0 - - -;
#X obj 50 1196 &&;
#X floatatom 48 1222 5 0 0 0 - - -;
#X obj 55 1026 receive X_axis;
#X obj 149 1027 receive Y_axis;
#X obj 99 1243 bng 15 250 50 0 empty empty empty 17 7 0 10 -262144
-1 -1;
#X obj 51 1171 bng 15 250 50 0 empty empty empty 17 7 0 10 -262144
-1 -1;
#X obj 30 1320 send clue;
#X obj 93 1107 == 6;
#X msg 32 1293 4;
#X obj 7 1106 == 2;
#X obj 7 1598 select 1;
#X floatatom -9 1406 5 0 0 0 - - -;
#X floatatom 53 1407 5 0 0 0 - - -;
#X floatatom -18 1486 5 0 0 0 - - -;
#X floatatom 57 1482 5 0 0 0 - - -;
#X obj 23 1537 &&;
#X floatatom 21 1563 5 0 0 0 - - -;
#X obj 28 1367 receive X_axis;
#X obj 122 1368 receive Y_axis;
#X obj 72 1584 bng 15 250 50 0 empty empty empty 17 7 0 10 -262144
-1 -1;
#X obj 24 1512 bng 15 250 50 0 empty empty empty 17 7 0 10 -262144
-1 -1;
#X obj 3 1661 send clue;
#X obj 66 1448 == 6;
#X msg 5 1634 4;
#X obj -20 1446 == 5;
#X obj -8 1930 select 1;
#X floatatom -24 1738 5 0 0 0 - - -;
#X floatatom 38 1739 5 0 0 0 - - -;
#X floatatom -33 1818 5 0 0 0 - - -;
#X floatatom 42 1814 5 0 0 0 - - -;
#X obj 8 1869 &&;
#X floatatom 6 1895 5 0 0 0 - - -;
#X obj 13 1699 receive X_axis;
#X obj 107 1700 receive Y_axis;
#X obj 57 1916 bng 15 250 50 0 empty empty empty 17 7 0 10 -262144
-1 -1;
#X obj 9 1844 bng 15 250 50 0 empty empty empty 17 7 0 10 -262144 -1
-1;
#X obj -12 1993 send clue;
#X obj -35 1778 == 5;
#X obj 50 1782 == 1;
#X msg -10 1966 5;
#X obj -19 2266 select 1;
#X floatatom -35 2074 5 0 0 0 - - -;
#X floatatom 27 2075 5 0 0 0 - - -;
#X floatatom -44 2154 5 0 0 0 - - -;
#X floatatom 31 2150 5 0 0 0 - - -;
#X obj -3 2205 &&;
#X floatatom -5 2231 5 0 0 0 - - -;
#X obj 2 2035 receive X_axis;
#X obj 96 2036 receive Y_axis;
#X obj 46 2252 bng 15 250 50 0 empty empty empty 17 7 0 10 -262144
-1 -1;
#X obj -2 2180 bng 15 250 50 0 empty empty empty 17 7 0 10 -262144
-1 -1;
#X obj -23 2329 send clue;
#X obj -46 2114 == 1;
#X obj 39 2118 == 5;
#X msg -21 2302 6;
#X obj -23 2601 select 1;
#X floatatom -39 2409 5 0 0 0 - - -;
#X floatatom 23 2410 5 0 0 0 - - -;
#X floatatom -48 2489 5 0 0 0 - - -;
#X floatatom 27 2485 5 0 0 0 - - -;
#X obj -7 2540 &&;
#X floatatom -9 2566 5 0 0 0 - - -;
#X obj -2 2370 receive X_axis;
#X obj 92 2371 receive Y_axis;
#X obj 42 2587 bng 15 250 50 0 empty empty empty 17 7 0 10 -262144
-1 -1;
#X obj -6 2515 bng 15 250 50 0 empty empty empty 17 7 0 10 -262144
-1 -1;
#X obj -27 2664 send clue;
#X msg -25 2637 7;
#X obj -50 2449 == 6;
#X obj 35 2453 == 3;
#X obj 663 -385 bng 15 250 50 0 empty empty empty 17 7 0 10 -262144
-1 -1;
#X obj 682 -384 bng 15 250 50 0 empty empty empty 17 7 0 10 -262144
-1 -1;
#X obj 704 -386 bng 15 250 50 0 empty empty empty 17 7 0 10 -262144
-1 -1;
#X obj -10 2925 select 1;
#X floatatom -26 2733 5 0 0 0 - - -;
#X floatatom 36 2734 5 0 0 0 - - -;
#X floatatom -35 2813 5 0 0 0 - - -;
#X floatatom 40 2809 5 0 0 0 - - -;
#X obj 6 2864 &&;
#X floatatom 4 2890 5 0 0 0 - - -;
#X obj 11 2694 receive X_axis;
#X obj 105 2695 receive Y_axis;
#X obj 55 2911 bng 15 250 50 0 empty empty empty 17 7 0 10 -262144
-1 -1;
#X obj 7 2839 bng 15 250 50 0 empty empty empty 17 7 0 10 -262144 -1
-1;
#X obj -14 2988 send clue;
#X obj 48 2777 == 3;
#X msg -11 2961 8;
#X obj -37 2775 == 5;
#N canvas 3826 576 450 300 piano 0;
#X obj 141 304 readsf~;
#X obj 146 385 *~;
#X msg 185 232 start;
#X msg 94 108 open Piano1.wav;
#X msg 271 120 2;
#X obj 144 24 inlet;
#X obj 130 438 outlet~;
#X connect 0 0 1 0;
#X connect 1 0 6 0;
#X connect 2 0 0 0;
#X connect 3 0 0 0;
#X connect 3 0 2 0;
#X connect 4 0 1 1;
#X connect 5 0 3 0;
#X connect 5 0 4 0;
#X restore 371 -290 pd piano;
#X obj 571 -88 dac~;
#N canvas 4244 191 450 300 safe 0;
#X obj 151 314 readsf~;
#X obj 156 395 *~;
#X msg 195 242 start;
#X msg 281 130 2;
#X obj 154 34 inlet;
#X obj 140 448 outlet~;
#X msg 104 118 open SafeWithCoins.wav;
#X connect 0 0 1 0;
#X connect 1 0 5 0;
#X connect 2 0 0 0;
#X connect 3 0 1 1;
#X connect 4 0 6 0;
#X connect 4 0 3 0;
#X connect 6 0 0 0;
#X connect 6 0 2 0;
#X restore 550 -286 pd safe;
#N canvas 3144 9 450 300 toilet 0;
#X obj 171 334 readsf~;
#X obj 176 415 *~;
#X msg 215 262 start;
#X msg 301 150 2;
#X obj 174 54 inlet;
#X obj 160 468 outlet~;
#X msg 124 138 open Toilet.wav;
#X connect 0 0 1 0;
#X connect 1 0 5 0;
#X connect 2 0 0 0;
#X connect 3 0 1 1;
#X connect 4 0 6 0;
#X connect 4 0 3 0;
#X connect 6 0 0 0;
#X connect 6 0 2 0;
#X restore 644 -282 pd toilet;
#N canvas 3081 19 450 300 sink 0;
#X obj 161 324 readsf~;
#X obj 166 405 *~;
#X msg 205 252 start;
#X msg 291 140 2;
#X obj 164 44 inlet;
#X obj 150 458 outlet~;
#X msg 114 128 open SinkOntoOff.wav;
#X connect 0 0 1 0;
#X connect 1 0 5 0;
#X connect 2 0 0 0;
#X connect 3 0 1 1;
#X connect 4 0 6 0;
#X connect 4 0 3 0;
#X connect 6 0 0 0;
#X connect 6 0 2 0;
#X restore 422 -331 pd sink;
#N canvas 3216 26 450 300 fridge 0;
#X obj 161 324 readsf~;
#X obj 166 405 *~;
#X msg 205 252 start;
#X msg 291 140 2;
#X obj 164 44 inlet;
#X obj 150 458 outlet~;
#X msg 114 128 open Fridge.wav;
#X connect 0 0 1 0;
#X connect 1 0 5 0;
#X connect 2 0 0 0;
#X connect 3 0 1 1;
#X connect 4 0 6 0;
#X connect 4 0 3 0;
#X connect 6 0 0 0;
#X connect 6 0 2 0;
#X restore 468 -285 pd fridge;
#N canvas 2415 65 450 300 Drawer$ 0;
#X obj 161 324 readsf~;
#X obj 166 405 *~;
#X msg 205 252 start;
#X msg 291 140 2;
#X obj 164 44 inlet;
#X obj 150 458 outlet~;
#X msg 114 128 open DrawerWithCoins.wav;
#X connect 0 0 1 0;
#X connect 1 0 5 0;
#X connect 2 0 0 0;
#X connect 3 0 1 1;
#X connect 4 0 3 0;
#X connect 4 0 6 0;
#X connect 6 0 0 0;
#X connect 6 0 2 0;
#X restore 502 -328 pd Drawer$;
#N canvas 4244 191 450 300 Microwave 0;
#X obj 151 314 readsf~;
#X obj 156 395 *~;
#X msg 195 242 start;
#X msg 281 130 2;
#X obj 154 34 inlet;
#X obj 140 448 outlet~;
#X msg 105 119 open Microwave.wav;
#X connect 0 0 1 0;
#X connect 1 0 5 0;
#X connect 2 0 0 0;
#X connect 3 0 1 1;
#X connect 4 0 6 0;
#X connect 4 0 3 0;
#X connect 6 0 0 0;
#X connect 6 0 2 0;
#X restore 586 -329 pd Microwave;
#N canvas 3081 19 450 300 shower 0;
#X obj 161 324 readsf~;
#X obj 166 405 *~;
#X msg 205 252 start;
#X msg 291 140 2;
#X obj 164 44 inlet;
#X obj 150 458 outlet~;
#X msg 114 128 open Shower1.wav;
#X connect 0 0 1 0;
#X connect 1 0 5 0;
#X connect 2 0 0 0;
#X connect 3 0 1 1;
#X connect 4 0 6 0;
#X connect 4 0 3 0;
#X connect 6 0 0 0;
#X connect 6 0 2 0;
#X restore 681 -333 pd shower;
#X obj -33 3285 select 1;
#X floatatom -49 3093 5 0 0 0 - - -;
#X floatatom 13 3094 5 0 0 0 - - -;
#X floatatom -58 3173 5 0 0 0 - - -;
#X floatatom 17 3169 5 0 0 0 - - -;
#X obj -17 3224 &&;
#X floatatom -19 3250 5 0 0 0 - - -;
#X obj -12 3054 receive X_axis;
#X obj 82 3055 receive Y_axis;
#X obj 32 3271 bng 15 250 50 0 empty empty empty 17 7 0 10 -262144
-1 -1;
#X obj -16 3199 bng 15 250 50 0 empty empty empty 17 7 0 10 -262144
-1 -1;
#X obj -37 3348 send clue;
#X obj -60 3135 == 6;
#X obj 26 3137 == 5;
#X msg -34 3321 9;
#N canvas 3081 19 450 300 Coins 0;
#X obj 161 324 readsf~;
#X obj 166 405 *~;
#X msg 205 252 start;
#X msg 291 140 2;
#X obj 164 44 inlet;
#X obj 150 458 outlet~;
#X msg 114 127 open Coin3.wav;
#X connect 0 0 1 0;
#X connect 1 0 5 0;
#X connect 2 0 0 0;
#X connect 3 0 1 1;
#X connect 4 0 6 0;
#X connect 4 0 3 0;
#X connect 6 0 0 0;
#X connect 6 0 2 0;
#X restore 715 -272 pd Coins;
#X obj -67 3643 select 1;
#X floatatom -83 3451 5 0 0 0 - - -;
#X floatatom -21 3452 5 0 0 0 - - -;
#X floatatom -92 3531 5 0 0 0 - - -;
#X floatatom -17 3527 5 0 0 0 - - -;
#X obj -51 3582 &&;
#X floatatom -53 3608 5 0 0 0 - - -;
#X obj -46 3412 receive X_axis;
#X obj 48 3413 receive Y_axis;
#X obj -2 3629 bng 15 250 50 0 empty empty empty 17 7 0 10 -262144
-1 -1;
#X obj -50 3557 bng 15 250 50 0 empty empty empty 17 7 0 10 -262144
-1 -1;
#X obj -62 3724 send clue;
#X msg -68 3679 9;
#X obj -94 3493 == 0;
#X obj -8 3495 == 3;
#X obj -62 4027 select 1;
#X floatatom -78 3835 5 0 0 0 - - -;
#X floatatom -16 3836 5 0 0 0 - - -;
#X floatatom -87 3915 5 0 0 0 - - -;
#X floatatom -12 3911 5 0 0 0 - - -;
#X obj -46 3966 &&;
#X floatatom -48 3992 5 0 0 0 - - -;
#X obj -41 3796 receive X_axis;
#X obj 53 3797 receive Y_axis;
#X obj 3 4013 bng 15 250 50 0 empty empty empty 17 7 0 10 -262144 -1
-1;
#X obj -45 3941 bng 15 250 50 0 empty empty empty 17 7 0 10 -262144
-1 -1;
#X obj -57 4108 send clue;
#X obj -92 3877 == 4;
#X obj -3 3879 == 7;
#X msg -63 4063 10;
#X obj -67 4399 select 1;
#X floatatom -83 4207 5 0 0 0 - - -;
#X floatatom -21 4208 5 0 0 0 - - -;
#X floatatom -92 4287 5 0 0 0 - - -;
#X floatatom -17 4283 5 0 0 0 - - -;
#X obj -51 4338 &&;
#X floatatom -53 4364 5 0 0 0 - - -;
#X obj -46 4168 receive X_axis;
#X obj 48 4169 receive Y_axis;
#X obj -2 4385 bng 15 250 50 0 empty empty empty 17 7 0 10 -262144
-1 -1;
#X obj -50 4313 bng 15 250 50 0 empty empty empty 17 7 0 10 -262144
-1 -1;
#X obj -62 4480 send clue;
#X obj -8 4251 == 7;
#X msg -68 4435 10;
#X obj -97 4249 == 6;
#X msg -24 4438 11;
#X obj 529 -451 select 1 2 3 4 5 6 7 8 9 10 11;
#N canvas 3081 19 450 300 Window 0;
#X obj 161 324 readsf~;
#X obj 166 405 *~;
#X msg 205 252 start;
#X obj 164 44 inlet;
#X obj 150 458 outlet~;
#X msg 114 127 open WindowOpentoClose.wav;
#X msg 291 140 1;
#X connect 0 0 1 0;
#X connect 1 0 4 0;
#X connect 2 0 0 0;
#X connect 3 0 5 0;
#X connect 3 0 6 0;
#X connect 5 0 0 0;
#X connect 5 0 2 0;
#X connect 6 0 1 1;
#X restore 749 -331 pd Window;
#X text -18 -710 Piano;
#X text -36 -262 Sink;
#X text -32 169 Sink;
#X text -48 606 Fridge;
#X text -71 1036 Drawer with Money;
#X text -90 1346 Drawer with Money;
#X text -89 1712 Safe;
#X text -79 2038 Microwave;
#X text -87 2380 Toilet;
#X text -87 2706 Shower;
#X text -73 3040 Coins;
#X text -96 3390 Coins;
#X text -91 3770 Window;
#X text -89 4139 Window;
#X obj 730 -390 bng 15 250 50 0 empty empty empty 17 7 0 10 -262144
-1 -1;
#X obj 752 -392 bng 15 250 50 0 empty empty empty 17 7 0 10 -262144
-1 -1;
#X connect 0 0 10 0;
#X connect 1 0 170 0;
#X connect 2 0 174 0;
#X connect 3 0 175 0;
#X connect 4 0 176 0;
#X connect 5 0 13 0;
#X connect 6 0 11 0;
#X connect 7 0 172 0;
#X connect 8 0 177 0;
#X connect 9 0 173 0;
#X connect 10 0 13 1;
#X connect 11 0 5 0;
#X connect 12 0 6 0;
#X connect 13 0 14 0;
#X connect 14 0 241 0;
#X connect 15 0 16 0;
#X connect 16 0 27 0;
#X connect 17 0 28 0;
#X connect 17 0 29 0;
#X connect 18 0 31 0;
#X connect 19 0 21 0;
#X connect 20 0 21 1;
#X connect 20 0 26 0;
#X connect 21 0 22 0;
#X connect 22 0 25 0;
#X connect 22 0 15 0;
#X connect 23 0 17 0;
#X connect 24 0 18 0;
#X connect 26 0 21 0;
#X connect 28 0 30 1;
#X connect 29 0 30 0;
#X connect 30 0 19 0;
#X connect 31 0 20 0;
#X connect 32 0 46 0;
#X connect 33 0 44 0;
#X connect 34 0 45 0;
#X connect 35 0 37 0;
#X connect 36 0 37 1;
#X connect 36 0 42 0;
#X connect 37 0 38 0;
#X connect 38 0 41 0;
#X connect 38 0 32 0;
#X connect 39 0 33 0;
#X connect 40 0 34 0;
#X connect 42 0 37 0;
#X connect 44 0 35 0;
#X connect 45 0 36 0;
#X connect 46 0 43 0;
#X connect 47 0 59 0;
#X connect 48 0 61 0;
#X connect 49 0 60 0;
#X connect 50 0 52 0;
#X connect 51 0 52 1;
#X connect 51 0 57 0;
#X connect 52 0 53 0;
#X connect 53 0 56 0;
#X connect 53 0 47 0;
#X connect 54 0 48 0;
#X connect 55 0 49 0;
#X connect 57 0 52 0;
#X connect 59 0 58 0;
#X connect 60 0 51 0;
#X connect 61 0 50 0;
#X connect 62 0 76 0;
#X connect 63 0 74 0;
#X connect 64 0 75 0;
#X connect 65 0 67 0;
#X connect 66 0 67 1;
#X connect 66 0 72 0;
#X connect 67 0 68 0;
#X connect 68 0 71 0;
#X connect 68 0 62 0;
#X connect 69 0 63 0;
#X connect 70 0 64 0;
#X connect 72 0 67 0;
#X connect 74 0 65 0;
#X connect 75 0 66 0;
#X connect 76 0 73 0;
#X connect 77 0 90 0;
#X connect 78 0 91 0;
#X connect 79 0 89 0;
#X connect 80 0 82 0;
#X connect 81 0 82 1;
#X connect 81 0 87 0;
#X connect 82 0 83 0;
#X connect 83 0 86 0;
#X connect 83 0 77 0;
#X connect 84 0 78 0;
#X connect 85 0 79 0;
#X connect 87 0 82 0;
#X connect 89 0 81 0;
#X connect 90 0 88 0;
#X connect 91 0 80 0;
#X connect 92 0 105 0;
#X connect 93 0 106 0;
#X connect 94 0 104 0;
#X connect 95 0 97 0;
#X connect 96 0 97 1;
#X connect 96 0 102 0;
#X connect 97 0 98 0;
#X connect 98 0 101 0;
#X connect 98 0 92 0;
#X connect 99 0 93 0;
#X connect 100 0 94 0;
#X connect 102 0 97 0;
#X connect 104 0 96 0;
#X connect 105 0 103 0;
#X connect 106 0 95 0;
#X connect 107 0 121 0;
#X connect 108 0 119 0;
#X connect 109 0 120 0;
#X connect 110 0 112 0;
#X connect 111 0 112 1;
#X connect 111 0 117 0;
#X connect 112 0 113 0;
#X connect 113 0 116 0;
#X connect 113 0 107 0;
#X connect 114 0 108 0;
#X connect 115 0 109 0;
#X connect 117 0 112 0;
#X connect 119 0 110 0;
#X connect 120 0 111 0;
#X connect 121 0 118 0;
#X connect 122 0 136 0;
#X connect 123 0 134 0;
#X connect 124 0 135 0;
#X connect 125 0 127 0;
#X connect 126 0 127 1;
#X connect 126 0 132 0;
#X connect 127 0 128 0;
#X connect 128 0 131 0;
#X connect 128 0 122 0;
#X connect 129 0 123 0;
#X connect 130 0 124 0;
#X connect 132 0 127 0;
#X connect 134 0 125 0;
#X connect 135 0 126 0;
#X connect 136 0 133 0;
#X connect 137 0 149 0;
#X connect 138 0 150 0;
#X connect 139 0 151 0;
#X connect 140 0 142 0;
#X connect 141 0 142 1;
#X connect 141 0 147 0;
#X connect 142 0 143 0;
#X connect 143 0 146 0;
#X connect 143 0 137 0;
#X connect 144 0 138 0;
#X connect 145 0 139 0;
#X connect 147 0 142 0;
#X connect 149 0 148 0;
#X connect 150 0 140 0;
#X connect 151 0 141 0;
#X connect 152 0 178 0;
#X connect 153 0 194 0;
#X connect 154 0 242 0;
#X connect 155 0 168 0;
#X connect 156 0 169 0;
#X connect 157 0 167 0;
#X connect 158 0 160 0;
#X connect 159 0 160 1;
#X connect 159 0 165 0;
#X connect 160 0 161 0;
#X connect 161 0 164 0;
#X connect 161 0 155 0;
#X connect 162 0 156 0;
#X connect 163 0 157 0;
#X connect 165 0 160 0;
#X connect 167 0 159 0;
#X connect 168 0 166 0;
#X connect 169 0 158 0;
#X connect 170 0 171 0;
#X connect 170 0 171 1;
#X connect 172 0 171 0;
#X connect 172 0 171 1;
#X connect 173 0 171 0;
#X connect 173 0 171 1;
#X connect 174 0 171 0;
#X connect 174 0 171 1;
#X connect 175 0 171 0;
#X connect 175 0 171 1;
#X connect 176 0 171 0;
#X connect 176 0 171 1;
#X connect 177 0 171 0;
#X connect 177 0 171 1;
#X connect 178 0 171 0;
#X connect 178 0 171 1;
#X connect 179 0 193 0;
#X connect 180 0 191 0;
#X connect 181 0 192 0;
#X connect 182 0 184 0;
#X connect 183 0 184 1;
#X connect 183 0 189 0;
#X connect 184 0 185 0;
#X connect 185 0 188 0;
#X connect 185 0 179 0;
#X connect 186 0 180 0;
#X connect 187 0 181 0;
#X connect 189 0 184 0;
#X connect 191 0 182 0;
#X connect 192 0 183 0;
#X connect 193 0 190 0;
#X connect 194 0 171 0;
#X connect 194 0 171 1;
#X connect 195 0 207 0;
#X connect 196 0 208 0;
#X connect 197 0 209 0;
#X connect 198 0 200 0;
#X connect 199 0 200 1;
#X connect 199 0 205 0;
#X connect 200 0 201 0;
#X connect 201 0 204 0;
#X connect 201 0 195 0;
#X connect 202 0 196 0;
#X connect 203 0 197 0;
#X connect 205 0 200 0;
#X connect 207 0 206 0;
#X connect 208 0 198 0;
#X connect 209 0 199 0;
#X connect 210 0 224 0;
#X connect 211 0 222 0;
#X connect 212 0 223 0;
#X connect 213 0 215 0;
#X connect 214 0 215 1;
#X connect 214 0 220 0;
#X connect 215 0 216 0;
#X connect 216 0 219 0;
#X connect 216 0 210 0;
#X connect 217 0 211 0;
#X connect 218 0 212 0;
#X connect 220 0 215 0;
#X connect 222 0 213 0;
#X connect 223 0 214 0;
#X connect 224 0 221 0;
#X connect 225 0 238 0;
#X connect 225 1 240 0;
#X connect 226 0 239 0;
#X connect 227 0 237 0;
#X connect 228 0 230 0;
#X connect 229 0 230 1;
#X connect 229 0 235 0;
#X connect 230 0 231 0;
#X connect 231 0 234 0;
#X connect 231 0 225 0;
#X connect 232 0 226 0;
#X connect 233 0 227 0;
#X connect 235 0 230 0;
#X connect 237 0 229 0;
#X connect 238 0 236 0;
#X connect 239 0 228 0;
#X connect 240 0 236 0;
#X connect 241 0 1 0;
#X connect 241 1 2 0;
#X connect 241 2 3 0;
#X connect 241 3 4 0;
#X connect 241 4 7 0;
#X connect 241 5 8 0;
#X connect 241 6 9 0;
#X connect 241 7 152 0;
#X connect 241 8 153 0;
#X connect 241 9 154 0;
#X connect 241 10 257 0;
#X connect 241 11 258 0;
#X connect 242 0 171 0;
#X connect 242 0 171 1;
#X restore 334 97 pd interactive;
#N canvas 747 179 819 504 proximity 1;
#X floatatom 63 46 5 0 0 0 - - -;
#X floatatom 157 47 5 0 0 0 - - -;
#X floatatom 321 58 5 0 0 0 - - -;
#X text 363 9 object position;
#X text 375 26 x pos;
#X text 421 27 y pos;
#X floatatom 166 384 5 0 0 0 - - -;
#X obj 65 369 *~;
#X obj 58 410 dac~;
#X obj 146 256 * 100;
#X floatatom 146 320 5 0 0 0 - - -;
#X obj 148 301 line;
#X obj 142 343 / 100;
#X msg 146 278 \$1 300;
#X obj 167 406 expr if ($f1>= 0 \, $f1 \, 0);
#X obj 148 153 expr sqrt(pow(($f1 - $f2) \, 2) + pow(($f3 - $f4) \,
2));
#X floatatom 142 174 5 0 0 0 - - -;
#X text 339 124 player y;
#X text 243 128 object x;
#X text 430 124 object y;
#X floatatom 420 64 5 0 0 0 - - -;
#X obj 171 87 bng 15 250 50 0 empty empty empty 17 7 0 10 -262144 -1
-1;
#X text 146 126 player x;
#X text 236 201 the 25 is the max distance for hearing the sound;
#X text 250 202 this will change for your project;
#X text 231 233 takes the max number (25) and converting to;
#X text 231 242 a number between 1 and 0 to be used as volume;
#X text 228 260 makes the decimal into an integer;
#X text 243 297 Line counts from its current position;
#X text 231 298 to the new number in 300 ms (this can be changed);
#X text 224 337 converts back to decimal;
#X text 328 406 If statement to prevent neg numbers;
#X obj 161 18 receive Y_axis;
#X obj 64 18 receive X_axis;
#X obj 52 316 readsf~;
#X msg 96 244 start;
#X obj 116 285 bng 15 250 50 0 empty empty empty 17 7 0 10 -262144
-1 -1;
#X obj 11 83 key;
#X obj 143 235 / 3;
#X obj 143 213 expr 3 - $f1;
#X msg 15 178 open AirConditioner.wav;
#X msg 328 27 6;
#X floatatom 74 509 5 0 0 0 - - -;
#X floatatom 168 510 5 0 0 0 - - -;
#X floatatom 332 521 5 0 0 0 - - -;
#X text 374 472 object position;
#X text 386 489 x pos;
#X text 432 490 y pos;
#X floatatom 177 847 5 0 0 0 - - -;
#X obj 76 832 *~;
#X obj 69 873 dac~;
#X obj 157 719 * 100;
#X floatatom 157 783 5 0 0 0 - - -;
#X obj 159 764 line;
#X obj 153 806 / 100;
#X msg 157 741 \$1 300;
#X obj 178 869 expr if ($f1>= 0 \, $f1 \, 0);
#X obj 159 616 expr sqrt(pow(($f1 - $f2) \, 2) + pow(($f3 - $f4) \,
2));
#X floatatom 153 637 5 0 0 0 - - -;
#X text 350 587 player y;
#X text 254 591 object x;
#X text 441 587 object y;
#X floatatom 431 527 5 0 0 0 - - -;
#X obj 182 550 bng 15 250 50 0 empty empty empty 17 7 0 10 -262144
-1 -1;
#X text 157 589 player x;
#X text 247 664 the 25 is the max distance for hearing the sound;
#X text 261 665 this will change for your project;
#X text 242 696 takes the max number (25) and converting to;
#X text 242 705 a number between 1 and 0 to be used as volume;
#X text 239 723 makes the decimal into an integer;
#X text 254 760 Line counts from its current position;
#X text 242 761 to the new number in 300 ms (this can be changed);
#X text 235 800 converts back to decimal;
#X text 339 869 If statement to prevent neg numbers;
#X obj 172 481 receive Y_axis;
#X obj 75 481 receive X_axis;
#X obj 63 779 readsf~;
#X msg 107 707 start;
#X obj 127 748 bng 15 250 50 0 empty empty empty 17 7 0 10 -262144
-1 -1;
#X obj 22 546 key;
#X obj 154 698 / 3;
#X obj 154 676 expr 3 - $f1;
#X msg 20 642 open CeilingFan.wav;
#X msg 339 490 3;
#X msg 497 490 3;
#X msg 486 27 0;
#X connect 0 0 15 0;
#X connect 1 0 15 2;
#X connect 1 0 21 0;
#X connect 2 0 15 1;
#X connect 6 0 14 0;
#X connect 7 0 8 0;
#X connect 7 0 8 1;
#X connect 9 0 13 0;
#X connect 10 0 12 0;
#X connect 11 0 10 0;
#X connect 12 0 6 0;
#X connect 13 0 11 0;
#X connect 14 0 7 1;
#X connect 15 0 16 0;
#X connect 16 0 39 0;
#X connect 20 0 15 3;
#X connect 21 0 15 0;
#X connect 32 0 1 0;
#X connect 32 0 85 0;
#X connect 33 0 0 0;
#X connect 33 0 41 0;
#X connect 34 0 7 0;
#X connect 34 1 36 0;
#X connect 35 0 34 0;
#X connect 36 0 40 0;
#X connect 37 0 40 0;
#X connect 38 0 9 0;
#X connect 39 0 38 0;
#X connect 40 0 34 0;
#X connect 40 0 35 0;
#X connect 41 0 2 0;
#X connect 42 0 57 0;
#X connect 43 0 57 2;
#X connect 43 0 63 0;
#X connect 44 0 57 1;
#X connect 48 0 56 0;
#X connect 49 0 50 0;
#X connect 49 0 50 1;
#X connect 51 0 55 0;
#X connect 52 0 54 0;
#X connect 53 0 52 0;
#X connect 54 0 48 0;
#X connect 55 0 53 0;
#X connect 56 0 49 1;
#X connect 57 0 58 0;
#X connect 58 0 81 0;
#X connect 62 0 57 3;
#X connect 63 0 57 0;
#X connect 74 0 43 0;
#X connect 74 0 84 0;
#X connect 75 0 42 0;
#X connect 75 0 83 0;
#X connect 76 0 49 0;
#X connect 76 1 78 0;
#X connect 77 0 76 0;
#X connect 78 0 82 0;
#X connect 79 0 82 0;
#X connect 80 0 51 0;
#X connect 81 0 80 0;
#X connect 82 0 76 0;
#X connect 82 0 77 0;
#X connect 83 0 44 0;
#X connect 84 0 62 0;
#X connect 85 0 20 0;
#X restore 283 142 pd proximity;
#X connect 0 0 1 0;
